PathFileType	4	(X/Y/Z)	Apose_0-50.trc
DataRate	CameraRate	NumFrames	NumMarkers	Units	OrigDataRate	OrigDataStartFrame	OrigNumFrames
30	30	6	22	m	30	0	50
Frame#	Time	Hip			RHip			RKnee			RAnkle			RBigToe			RSmallToe			RHeel			LHip			LKnee			LAnkle			LBigToe			LSmallToe			LHeel			Neck			Head			Nose			RShoulder			RElbow			RWrist			LShoulder			LElbow			LWrist		
		X1	Y1	Z1	X2	Y2	Z2	X3	Y3	Z3	X4	Y4	Z4	X5	Y5	Z5	X6	Y6	Z6	X7	Y7	Z7	X8	Y8	Z8	X9	Y9	Z9	X10	Y10	Z10	X11	Y11	Z11	X12	Y12	Z12	X13	Y13	Z13	X14	Y14	Z14	X15	Y15	Z15	X16	Y16	Z16	X17	Y17	Z17	X18	Y18	Z18	X19	Y19	Z19	X20	Y20	Z20	X21	Y21	Z21	X22	Y22	Z22
1	0.0333333333333333	0.04870005882541667	0.9223524524707408	0.37083673319109695	0.0450115242990703	0.88240684341344	0.4798965302442061	0.012580666592584406	0.5107927566439934	0.4963146526271298	-0.00513770653283086	0.11383608813340759	0.5166900081094052	0.18893584048722664	0.048788497230188715	0.5643783975293009	0.14949803854445806	0.024851404173852763	0.6134248383832501	-0.045415465198162946	0.04395972964006533	0.49636441083738186	0.049163015068547346	0.8819615693234005	0.2643843417052564	0.025788556659442408	0.5094301835001669	0.23054028419602893	0.0013160163265007073	0.12366564658351538	0.20701240598018217	0.21198314740872948	0.048950759749787257	0.1858421147812724	0.17559630082297017	0.029555650141027297	0.13981130381010903	-0.03821903682720056	0.0467343350589048	0.21997267445569757	0.04543791690226069	1.583464160107065	0.35696425540933047	0.23683322016118696	1.8218473151021173	0.2623125901655429	0.20912348078453702	1.6484004027308112	0.32796938473095105	0.02761690168141271	1.493903240012315	0.551374434913632	0.10857792769411814	1.2337691812816383	0.7306584774297354	0.1785078516442361	1.0407444355815325	0.8929716038318282	0.0013166908555400246	1.483645504480777	0.168313110890287	0.025897920113713918	1.2270232054289676	0.010834531062335133	0.08192194709267261	1.0207528485224966	-0.13435864904877368
2	0.0666666666666666	0.045458948900563505	0.9231437170036978	0.36936622618349135	0.03984904417893236	0.8829504317408716	0.4769505107059067	0.011513723984677978	0.5099333637968981	0.49785506681296215	-0.005303720547776583	0.11294378728010093	0.5166631250665752	0.188385786285898	0.04238034048105827	0.5612775230925513	0.1482513421755272	0.02797846363836809	0.6184739764419599	-0.043216737079492966	0.04144558026925899	0.49663445147900454	0.043641549234398266	0.882825467278269	0.260915693763618	0.02234014249985999	0.5094767084372528	0.23040174755913218	0.0034079970014277354	0.12092216646396216	0.20791751626735736	0.21377162707062877	0.0469612770381431	0.1875781531109895	0.1712344737876307	0.03202181762958329	0.13395155491968233	-0.040054383625878986	0.04661215961754091	0.21627214623582947	0.050449305408483705	1.5856407667215147	0.3587061092633416	0.24015268518007715	1.8031429052684402	0.28955191705908045	0.2183156660213906	1.6272835334034927	0.32945522686981804	0.026725890664007847	1.4938330077551523	0.5493954166479661	0.10147553509420945	1.2344281700489514	0.72884551133173	0.166106378647553	1.042578647379236	0.894969050331257	0.005067320527488151	1.4832092977357594	0.1632154959095045	0.02211898912901114	1.2283481695553624	0.009524221043983414	0.07207659023526933	1.0188632898846153	-0.13891095255042965
3	0.1	0.0421690594340223	0.9239223792478644	0.3678961943744936	0.034953973589111655	0.8837600357046085	0.4742086932454954	0.010075246007541819	0.5092238270988915	0.4991585762373794	-0.005420861228115345	0.11210727323184362	0.5164961773031949	0.18866306457390705	0.037191436645868096	0.5594871306944608	0.1475027354262972	0.02974991117688412	0.6227424033441299	-0.041368647505374175	0.03932168181714566	0.4968576327316439	0.03848991949466056	0.8841898323892237	0.25772085340450046	0.018851774650225653	0.5096916363694776	0.2301318650065205	0.004918933657052859	0.11893136873484549	0.20865841361405277	0.21534364236662856	0.04556843442484076	0.1889930383194544	0.16789231477146443	0.03390894819113034	0.12932382821921728	-0.04201645814836739	0.046840801088011155	0.21243075452411478	0.05476143377303091	1.5864783925902646	0.35979702131312535	0.24717748559743538	1.7866088483853455	0.31004175373004345	0.22974189255809518	1.6099065636894228	0.33088836008203065	0.02587787564392303	1.4940971928703581	0.5473898274926966	0.0945055551206031	1.2350209640857803	0.7274546923014908	0.15464634326269516	1.0442410217346039	0.8970216177324732	0.00867693602850347	1.4830683854380797	0.1590424350624702	0.01845344482083624	1.2296557895933242	0.008130409927760613	0.06283882241653513	1.017215981044314	-0.14307681859600466
4	0.1333333333333333	0.03906551040597335	0.9246850269607166	0.3664814450919798	0.03070580326047736	0.884968970183588	0.47179867692435745	0.008212999973576947	0.5087719658983962	0.5000411004756145	-0.005454603200278787	0.1113971531547079	0.5161988925559066	0.19014260793320473	0.03378644464433582	0.5594715041737692	0.14747750298503104	0.02954352658382173	0.6257722547904452	-0.040118777916458445	0.037837896777711925	0.49713423932897455	0.034083525585534645	0.8862998509981455	0.25494196030288585	0.015445232603260908	0.5101608273211838	0.22969779806494317	0.005582451368199448	0.11801864133289725	0.20912506582250717	0.21639798817047468	0.04488404516215185	0.19001605127519947	0.1659102707197835	0.03499091627356895	0.12647244618765008	-0.043974683718581375	0.04751393477401608	0.2086006313902525	0.057706559061485425	1.5851156269375746	0.35975686329311185	0.2571488795815021	1.7739333346949164	0.3216546961630232	0.2448640994029507	1.599440517960916	0.33235288866829027	0.024968919678811055	1.4948086781114953	0.5453481241443319	0.08775862245062774	1.2354593532986042	0.7266070480910385	0.14506802534595525	1.0456083501718232	0.8990032610760401	0.01198381395099284	1.4833003674662402	0.15631412227355646	0.015252574335629607	1.2308232290589398	0.00681411902337813	0.055117116913553456	1.0159008615878322	-0.14650789555392274
5	0.1666666666666666	0.03650688922032737	0.9254230812645182	0.365164312711939	0.027404291118157516	0.8865796323036046	0.4697507456716255	0.006181542749457315	0.5085783114721191	0.5004492512700085	-0.005408482332705265	0.11089287564494188	0.5159028008757753	0.19255960940658295	0.03205519427063422	0.5608159988166157	0.14809133131194357	0.027655677930336645	0.6274995646283265	-0.03954958607791111	0.03710577649977267	0.4976279679305457	0.030642848290142653	0.889060839692284	0.2525135447798799	0.012381241603551127	0.5108711097200842	0.22912464247983214	0.005529473294814519	0.11797709196595367	0.20929270272918182	0.21678287412088207	0.04470926458878569	0.19070660166477693	0.16498639024231174	0.03540542787501193	0.12520234961214313	-0.04551450368649752	0.04862193861026775	0.20513909048257595	0.05916315104259343	1.5818037532232814	0.35856830181112026	0.2659487686256021	1.7656720146563087	0.32725392971143363	0.2634757515860007	1.5969288347047488	0.33390119996817275	0.023825332762207302	1.4958786777069433	0.5432519211892896	0.08120892805859395	1.2356373854685032	0.7261557465327981	0.13789705966475457	1.0466212401273582	0.900693693357919	0.014829846457475022	1.483766897772967	0.1550313507382585	0.012896603915775798	1.2316894352353456	0.00583632771365663	0.04962670098940932	1.0148345375748655	-0.14903879051359914
6	0.2	0.03466984724801915	0.9260757529085576	0.36393136855767233	0.025054114615636065	0.8884345571742924	0.46806293699341234	0.004290212247810687	0.5085379062213065	0.5004808627250039	-0.0053170421537660825	0.11060132015026994	0.5157166061513947	0.1952138734418825	0.031615956858659165	0.5627376764211522	0.14902220448419015	0.02505529927871581	0.6281440089353303	-0.03955577160031343	0.037083121816000576	0.4983915490138268	0.028128773239130656	0.8920408272326683	0.2503103205277313	0.009894193481095987	0.5117130892868486	0.22845317553319458	0.005104720862701569	0.1183289333056096	0.20922503666372103	0.21666021989845885	0.04483209347772368	0.19111421546790905	0.1646666922911776	0.03541762937798052	0.1249754025726873	-0.046278162949240094	0.0502246284612295	0.20225122313635935	0.059670857659497346	1.5777498133522614	0.35668617718149637	0.27069625598502783	1.7612817780059669	0.33064861358444647	0.2829897423641296	1.6003610706626545	0.3353734804803429	0.02243795574229597	1.497123588554311	0.5411405008541663	0.07487629423778842	1.2355067494570509	0.7258993412224404	0.1329344013905549	1.047265462105408	0.901911457662268	0.017092966525367924	1.4842397878593332	0.15479583030572514	0.011559604503293764	1.2321615376237385	0.005322186548840314	0.04648476232442481	1.0138953634859156	-0.1506888082861392
